<svg xmlns="http://www.w3.org/2000/svg" xmlns:xlink="http://www.w3.org/1999/xlink" width="500" zoomAndPan="magnify" viewBox="0 0 375 374.999991" height="500" preserveAspectRatio="xMidYMid meet" version="1.0"><defs><g/><clipPath id="67156ed5d7"><path d="M 7 53 L 367.984375 53 L 367.984375 327 L 7 327 Z M 7 53 " clip-rule="nonzero"/></clipPath><clipPath id="08fb491598"><path d="M 6.484375 52.078125 L 367.984375 52.078125 L 367.984375 327.328125 L 6.484375 327.328125 Z M 6.484375 52.078125 " clip-rule="nonzero"/></clipPath><clipPath id="7d943e69af"><path d="M 7 53 L 367.984375 53 L 367.984375 94 L 7 94 Z M 7 53 " clip-rule="nonzero"/></clipPath><clipPath id="76ff261ff8"><path d="M 6.484375 52.078125 L 367.984375 52.078125 L 367.984375 95 L 6.484375 95 Z M 6.484375 52.078125 " clip-rule="nonzero"/></clipPath><clipPath id="f6cbc5cdf9"><path d="M 108 237 L 143.941406 237 L 143.941406 243 L 108 243 Z M 108 237 " clip-rule="nonzero"/></clipPath><clipPath id="4b180307f3"><path d="M 31.441406 238 L 66 238 L 66 243 L 31.441406 243 Z M 31.441406 238 " clip-rule="nonzero"/></clipPath><clipPath id="b9a2e10568"><path d="M 109 244 L 139 244 L 139 254.714844 L 109 254.714844 Z M 109 244 " clip-rule="nonzero"/></clipPath><clipPath id="c92c5f027f"><path d="M 35 244 L 65 244 L 65 254.714844 L 35 254.714844 Z M 35 244 " clip-rule="nonzero"/></clipPath></defs><g clip-path="url(#67156ed5d7)"><path fill="#ffffff" d="M 22.472656 53.039062 L 352.035156 53.039062 C 353.027344 53.039062 354.007812 53.132812 354.980469 53.328125 C 355.953125 53.519531 356.898438 53.808594 357.8125 54.1875 C 358.730469 54.566406 359.601562 55.03125 360.425781 55.582031 C 361.25 56.132812 362.011719 56.757812 362.714844 57.460938 C 363.414062 58.160156 364.039062 58.921875 364.589844 59.75 C 365.140625 60.574219 365.605469 61.441406 365.988281 62.359375 C 366.367188 63.273438 366.652344 64.21875 366.847656 65.191406 C 367.039062 66.164062 367.136719 67.144531 367.136719 68.136719 L 367.136719 311.578125 C 367.136719 312.570312 367.039062 313.550781 366.847656 314.523438 C 366.652344 315.496094 366.367188 316.441406 365.988281 317.355469 C 365.605469 318.273438 365.140625 319.144531 364.589844 319.96875 C 364.039062 320.792969 363.414062 321.554688 362.714844 322.253906 C 362.011719 322.957031 361.25 323.582031 360.425781 324.132812 C 359.601562 324.683594 358.730469 325.148438 357.8125 325.527344 C 356.898438 325.910156 355.953125 326.195312 354.980469 326.386719 C 354.007812 326.582031 353.027344 326.679688 352.035156 326.679688 L 22.472656 326.679688 C 21.480469 326.679688 20.5 326.582031 19.527344 326.386719 C 18.554688 326.195312 17.609375 325.910156 16.695312 325.527344 C 15.777344 325.148438 14.90625 324.683594 14.082031 324.132812 C 13.257812 323.582031 12.496094 322.957031 11.792969 322.253906 C 11.09375 321.554688 10.46875 320.792969 9.917969 319.96875 C 9.367188 319.144531 8.902344 318.273438 8.523438 317.355469 C 8.140625 316.441406 7.855469 315.496094 7.664062 314.523438 C 7.46875 313.550781 7.371094 312.570312 7.371094 311.578125 L 7.371094 68.136719 C 7.371094 67.144531 7.46875 66.164062 7.664062 65.191406 C 7.855469 64.21875 8.140625 63.273438 8.523438 62.359375 C 8.902344 61.441406 9.367188 60.574219 9.917969 59.75 C 10.46875 58.921875 11.09375 58.160156 11.792969 57.460938 C 12.496094 56.757812 13.257812 56.132812 14.082031 55.582031 C 14.90625 55.03125 15.777344 54.566406 16.695312 54.1875 C 17.609375 53.808594 18.554688 53.519531 19.527344 53.328125 C 20.5 53.132812 21.480469 53.039062 22.472656 53.039062 Z M 22.472656 53.039062 " fill-opacity="1" fill-rule="nonzero"/></g><g clip-path="url(#08fb491598)"><path fill="#000000" d="M 352.039062 53.925781 C 359.886719 53.925781 366.25 60.289062 366.25 68.136719 L 366.25 311.578125 C 366.25 319.425781 359.886719 325.789062 352.039062 325.789062 L 22.472656 325.789062 C 14.621094 325.789062 8.257812 319.425781 8.257812 311.578125 L 8.257812 68.136719 C 8.257812 60.289062 14.621094 53.925781 22.472656 53.925781 L 352.039062 53.925781 M 352.039062 52.148438 L 22.472656 52.148438 C 13.65625 52.148438 6.484375 59.320312 6.484375 68.136719 L 6.484375 311.578125 C 6.484375 320.390625 13.65625 327.5625 22.472656 327.5625 L 352.039062 327.5625 C 360.851562 327.5625 368.023438 320.390625 368.023438 311.578125 L 368.023438 68.136719 C 368.023438 59.320312 360.851562 52.148438 352.039062 52.148438 Z M 352.039062 52.148438 " fill-opacity="1" fill-rule="nonzero"/></g><g clip-path="url(#7d943e69af)"><path fill="#941414" d="M 7.371094 93.933594 L 7.371094 67.203125 C 7.371094 59.390625 13.726562 53.039062 21.539062 53.039062 L 352.972656 53.039062 C 360.78125 53.039062 367.136719 59.390625 367.136719 67.203125 L 367.136719 93.933594 Z M 7.371094 93.933594 " fill-opacity="1" fill-rule="nonzero"/></g><g clip-path="url(#76ff261ff8)"><path fill="#000000" d="M 352.972656 53.925781 C 360.304688 53.925781 366.25 59.871094 366.25 67.203125 L 366.25 93.046875 L 8.257812 93.046875 L 8.257812 67.203125 C 8.257812 59.871094 14.203125 53.925781 21.535156 53.925781 L 352.972656 53.925781 M 352.972656 52.148438 L 21.535156 52.148438 C 13.238281 52.148438 6.484375 58.902344 6.484375 67.203125 L 6.484375 94.820312 L 368.023438 94.820312 L 368.023438 67.203125 C 368.023438 58.902344 361.269531 52.148438 352.972656 52.148438 Z M 352.972656 52.148438 " fill-opacity="1" fill-rule="nonzero"/></g><path fill="#f1c40f" d="M 35.304688 84.804688 C 29.0625 84.804688 23.988281 79.726562 23.988281 73.484375 C 23.988281 67.246094 29.0625 62.167969 35.304688 62.167969 C 41.546875 62.167969 46.625 67.246094 46.625 73.484375 C 46.625 79.726562 41.550781 84.804688 35.304688 84.804688 Z M 35.304688 84.804688 " fill-opacity="1" fill-rule="nonzero"/><path fill="#000000" d="M 35.304688 63.054688 C 41.066406 63.054688 45.738281 67.722656 45.738281 73.484375 C 45.738281 79.246094 41.066406 83.914062 35.304688 83.914062 C 29.542969 83.914062 24.875 79.246094 24.875 73.484375 C 24.875 67.722656 29.542969 63.054688 35.304688 63.054688 M 35.304688 61.277344 C 28.574219 61.277344 23.097656 66.753906 23.097656 73.484375 C 23.097656 80.214844 28.574219 85.691406 35.304688 85.691406 C 42.035156 85.691406 47.511719 80.214844 47.511719 73.484375 C 47.511719 66.753906 42.035156 61.277344 35.304688 61.277344 Z M 35.304688 61.277344 " fill-opacity="1" fill-rule="nonzero"/><path fill="#000000" d="M 342.195312 73.484375 L 349.347656 66.332031 C 349.535156 66.148438 349.636719 65.898438 349.636719 65.628906 C 349.636719 65.363281 349.535156 65.117188 349.347656 64.929688 C 348.960938 64.539062 348.328125 64.539062 347.941406 64.929688 L 340.789062 72.082031 L 333.640625 64.929688 C 333.25 64.542969 332.621094 64.542969 332.230469 64.929688 C 332.046875 65.117188 331.941406 65.363281 331.941406 65.628906 C 331.941406 65.898438 332.046875 66.144531 332.234375 66.332031 L 339.382812 73.484375 L 332.234375 80.636719 C 332.042969 80.820312 331.941406 81.070312 331.941406 81.339844 C 331.941406 81.605469 332.042969 81.855469 332.234375 82.042969 C 332.621094 82.429688 333.25 82.429688 333.640625 82.042969 L 340.789062 74.886719 L 347.941406 82.042969 C 348.128906 82.226562 348.378906 82.332031 348.644531 82.332031 C 348.910156 82.332031 349.160156 82.230469 349.347656 82.042969 C 349.535156 81.851562 349.636719 81.601562 349.636719 81.335938 C 349.636719 81.070312 349.535156 80.820312 349.347656 80.632812 Z M 342.195312 73.484375 " fill-opacity="1" fill-rule="nonzero"/><g fill="#194a8d" fill-opacity="1"><g transform="translate(5.005391, 313.772689)"><g><path d="M 113.84375 -5.796875 L 113.84375 -131.25 L 95.875 -97.8125 L 67.96875 -97.8125 L 51.125 -130.703125 L 51.125 -6.078125 C 51.125 -2.765625 51.03125 -0.554688 50.84375 0.546875 C 50.101562 3.128906 46.507812 4.421875 40.0625 4.421875 C 21.644531 4.421875 12.4375 1.015625 12.4375 -5.796875 L 12.4375 -201.703125 C 12.4375 -208.703125 18.789062 -212.203125 31.5 -212.203125 C 44.207031 -212.203125 51.851562 -208.796875 54.4375 -201.984375 L 82.34375 -130.703125 L 111.625 -202.265625 C 113.101562 -206.316406 114.898438 -208.984375 117.015625 -210.265625 C 119.140625 -211.554688 122.867188 -212.203125 128.203125 -212.203125 C 141.472656 -212.203125 148.195312 -208.613281 148.375 -201.4375 L 152.796875 -119.09375 L 152.796875 -7.734375 C 152.796875 -2.210938 152.289062 1.191406 151.28125 2.484375 C 150.269531 3.773438 146.953125 4.421875 141.328125 4.421875 C 135.710938 4.421875 131.15625 4.234375 127.65625 3.859375 C 124.15625 3.492188 120.976562 2.53125 118.125 0.96875 C 115.269531 -0.59375 113.84375 -2.847656 113.84375 -5.796875 Z M 113.84375 -5.796875 "/></g></g></g><g fill="#194a8d" fill-opacity="1"><g transform="translate(160.836408, 221.343339)"><g><path d="M 23.015625 1.984375 C 16.878906 1.984375 12.378906 0.078125 9.515625 -3.734375 C 6.648438 -7.546875 5.21875 -14.265625 5.21875 -23.890625 L 5.21875 -61.703125 C 5.21875 -63.023438 6.734375 -63.6875 9.765625 -63.6875 C 12.796875 -63.6875 15.757812 -63.476562 18.65625 -63.0625 C 21.5625 -62.644531 23.015625 -62.191406 23.015625 -61.703125 L 23.140625 -23.890625 C 23.140625 -14.597656 23.800781 -9.953125 25.125 -9.953125 C 28.113281 -9.953125 32.09375 -11.441406 37.0625 -14.421875 L 37.0625 -61.703125 C 37.0625 -63.023438 38.578125 -63.6875 41.609375 -63.6875 C 44.640625 -63.6875 47.625 -63.476562 50.5625 -63.0625 C 53.507812 -62.644531 54.984375 -62.191406 54.984375 -61.703125 L 54.984375 0 C 54.984375 0.5 54.898438 0.832031 54.734375 1 C 54.398438 1.65625 52.265625 1.984375 48.328125 1.984375 C 44.390625 1.984375 41.960938 1.320312 41.046875 0 L 38.4375 -3.859375 C 32.632812 0.0351562 27.492188 1.984375 23.015625 1.984375 Z M 23.015625 1.984375 "/></g></g></g><g fill="#194a8d" fill-opacity="1"><g transform="translate(221.402274, 221.343339)"><g><path d="M 20.15625 -56.71875 C 26.945312 -61.363281 31.441406 -63.6875 33.640625 -63.6875 C 35.835938 -63.6875 37.828125 -63.269531 39.609375 -62.4375 C 41.398438 -61.613281 42.707031 -60.785156 43.53125 -59.953125 L 44.65625 -58.84375 C 43.414062 -53.53125 42.460938 -50.207031 41.796875 -48.875 C 41.128906 -47.550781 40.234375 -46.890625 39.109375 -46.890625 C 37.992188 -46.890625 36.566406 -47.34375 34.828125 -48.25 C 33.085938 -49.164062 31.507812 -49.625 30.09375 -49.625 C 28.6875 -49.625 25.867188 -48.34375 21.640625 -45.78125 L 21.640625 0 C 21.640625 0.5 21.554688 0.832031 21.390625 1 C 21.054688 1.65625 19.519531 1.984375 16.78125 1.984375 C 14.050781 1.984375 11.503906 1.773438 9.140625 1.359375 C 6.773438 0.953125 5.59375 0.5 5.59375 0 L 5.59375 -61.703125 C 5.59375 -63.023438 7.457031 -63.6875 11.1875 -63.6875 C 14.925781 -63.6875 17.082031 -63.023438 17.65625 -61.703125 L 17.65625 -61.453125 Z M 20.15625 -56.71875 "/></g></g></g><g fill="#194a8d" fill-opacity="1"><g transform="translate(267.168654, 221.343339)"><g><path d="M 34.078125 -3.859375 C 29.765625 0.0351562 25.929688 1.984375 22.578125 1.984375 C 19.222656 1.984375 16.503906 1.753906 14.421875 1.296875 C 12.347656 0.847656 10.484375 -0.140625 8.828125 -1.671875 C 7.171875 -3.210938 6.007812 -5.429688 5.34375 -8.328125 C 4.6875 -11.234375 4.359375 -15.09375 4.359375 -19.90625 C 4.359375 -26.625 7.632812 -31.222656 14.1875 -33.703125 L 31.96875 -38.3125 C 31.882812 -43.695312 31.34375 -47.175781 30.34375 -48.75 C 29.351562 -50.332031 27.195312 -51.125 23.875 -51.125 C 20.5625 -51.125 17.703125 -50.582031 15.296875 -49.5 L 10.953125 -47.765625 L 10.828125 -47.765625 C 10.078125 -47.347656 9.410156 -47.679688 8.828125 -48.765625 C 7.335938 -51.910156 6.59375 -54.375 6.59375 -56.15625 C 6.59375 -57.945312 6.738281 -58.941406 7.03125 -59.140625 C 7.320312 -59.347656 7.46875 -59.492188 7.46875 -59.578125 C 11.613281 -62.316406 16.984375 -63.6875 23.578125 -63.6875 C 30.171875 -63.6875 35.25 -62.816406 38.8125 -61.078125 C 42.375 -59.335938 44.960938 -56.164062 46.578125 -51.5625 C 48.203125 -46.957031 49.015625 -40.132812 49.015625 -31.09375 L 48.765625 0 C 48.765625 0.5 48.679688 0.832031 48.515625 1 C 48.179688 1.65625 46.601562 1.984375 43.78125 1.984375 C 38.644531 1.984375 36.078125 1.320312 36.078125 0 Z M 18.15625 -19.65625 C 18.15625 -13.6875 19.898438 -10.535156 23.390625 -10.203125 C 25.796875 -10.203125 27.535156 -10.613281 28.609375 -11.4375 C 30.929688 -13.019531 32.09375 -18.910156 32.09375 -29.109375 C 27.78125 -28.523438 24.378906 -27.34375 21.890625 -25.5625 C 19.398438 -23.78125 18.15625 -21.8125 18.15625 -19.65625 Z M 18.15625 -19.65625 "/></g></g></g><g fill="#194a8d" fill-opacity="1"><g transform="translate(321.267513, 221.343339)"><g><path d="M 22.390625 0 C 22.390625 0.5 22.304688 0.832031 22.140625 1 C 21.804688 1.65625 20.269531 1.984375 17.53125 1.984375 C 14.800781 1.984375 12.128906 1.773438 9.515625 1.359375 C 6.898438 0.953125 5.59375 0.5 5.59375 0 L 5.59375 -93.546875 C 5.59375 -94.867188 7.046875 -95.53125 9.953125 -95.53125 C 12.859375 -95.53125 15.265625 -95.34375 17.171875 -94.96875 C 19.078125 -94.59375 20.070312 -94.117188 20.15625 -93.546875 L 22.390625 -53.609375 Z M 22.390625 0 "/></g></g></g><path fill="#000000" d="M 125.585938 230.523438 C 119.660156 231.246094 114.183594 232.78125 108.515625 235.289062 C 105.816406 236.484375 105.101562 236.957031 105.101562 237.566406 C 105.101562 237.945312 105.683594 238.589844 106.023438 238.589844 C 106.132812 238.589844 107.335938 238.058594 108.667969 237.414062 C 112.644531 235.515625 116.996094 234.074219 121.648438 233.125 C 127.761719 231.890625 134.648438 231.832031 140.125 232.953125 C 142 233.351562 142.394531 233.21875 142.488281 232.25 C 142.5625 231.511719 142.300781 231.339844 140.648438 231.035156 C 136.277344 230.203125 129.957031 229.972656 125.585938 230.523438 Z M 125.585938 230.523438 " fill-opacity="1" fill-rule="nonzero"/><path fill="#000000" d="M 38.042969 231.035156 C 33.371094 231.605469 32.246094 232.042969 32.511719 233.105469 C 32.679688 233.789062 33.316406 233.902344 34.929688 233.542969 C 38.832031 232.667969 45.246094 232.460938 49.65625 233.066406 C 55.375 233.863281 60.757812 235.476562 65.878906 237.925781 C 67.851562 238.875 68.394531 238.894531 68.582031 238.078125 C 68.789062 237.300781 68.5625 237.054688 66.949219 236.238281 C 62.035156 233.75 55.65625 231.871094 49.5625 231.113281 C 46.914062 230.789062 40.40625 230.753906 38.042969 231.035156 Z M 38.042969 231.035156 " fill-opacity="1" fill-rule="nonzero"/><g clip-path="url(#f6cbc5cdf9)"><path fill="#000000" d="M 122.078125 238 C 118.007812 238.269531 111.59375 239.273438 109.285156 240.011719 C 108.402344 240.296875 108.121094 240.847656 108.554688 241.511719 C 108.929688 242.101562 108.835938 242.101562 112.289062 241.304688 C 117.953125 239.976562 126.128906 239.464844 131.890625 240.070312 C 135.640625 240.46875 137.609375 240.792969 140.707031 241.53125 L 142.9375 242.042969 L 143.351562 241.625 C 143.933594 241.039062 143.707031 240.28125 142.863281 240.011719 C 141.511719 239.558594 136.183594 238.589844 133.558594 238.304688 C 129.84375 237.925781 125.269531 237.792969 122.078125 238 Z M 122.078125 238 " fill-opacity="1" fill-rule="nonzero"/></g><g clip-path="url(#4b180307f3)"><path fill="#000000" d="M 42.171875 238.683594 C 39.636719 238.949219 36.09375 239.519531 33.464844 240.070312 C 32.230469 240.335938 31.441406 240.847656 31.441406 241.398438 C 31.441406 241.777344 32.246094 242.386719 32.605469 242.292969 C 33.390625 242.023438 37.78125 241.191406 39.824219 240.90625 C 43.691406 240.355469 48.792969 240.148438 52.449219 240.375 C 56.6875 240.660156 59.464844 241.058594 64.25 242.121094 C 65.074219 242.308594 65.691406 240.945312 65.035156 240.394531 C 64.734375 240.148438 60.816406 239.347656 57.53125 238.875 C 54.511719 238.4375 45.546875 238.324219 42.171875 238.683594 Z M 42.171875 238.683594 " fill-opacity="1" fill-rule="nonzero"/></g><path fill="#000000" d="M 86.644531 239.765625 C 82.648438 241.152344 81.597656 244.851562 84.449219 247.433594 C 85.839844 248.707031 87.265625 249.199219 89.253906 249.125 C 93.585938 248.914062 96.398438 245.269531 94.5625 242.253906 C 93.097656 239.878906 89.515625 238.761719 86.644531 239.765625 Z M 86.644531 239.765625 " fill-opacity="1" fill-rule="nonzero"/><g clip-path="url(#b9a2e10568)"><path fill="#000000" d="M 110.128906 244.96875 C 109.828125 245.289062 109.8125 245.460938 109.980469 245.859375 C 110.261719 246.449219 110.355469 246.464844 113.769531 246.75 C 120.242188 247.261719 127.085938 249.3125 134.007812 252.765625 C 135.976562 253.753906 137.761719 254.53125 137.929688 254.496094 C 138.117188 254.457031 138.417969 254.191406 138.585938 253.886719 C 138.847656 253.394531 138.847656 253.316406 138.492188 252.957031 C 137.871094 252.351562 133.050781 249.921875 130.125 248.761719 C 124.441406 246.503906 119.527344 245.289062 113.976562 244.777344 C 110.84375 244.492188 110.542969 244.511719 110.128906 244.96875 Z M 110.128906 244.96875 " fill-opacity="1" fill-rule="nonzero"/></g><g clip-path="url(#c92c5f027f)"><path fill="#000000" d="M 60.589844 245.003906 C 53.5 245.59375 46.390625 247.679688 39.414062 251.171875 C 36.054688 252.882812 35.773438 253.070312 35.773438 253.714844 C 35.773438 254.324219 36.09375 254.722656 36.542969 254.722656 C 36.710938 254.722656 38.136719 254.058594 39.714844 253.261719 C 47.253906 249.351562 53.554688 247.546875 62.074219 246.847656 C 62.933594 246.769531 63.761719 246.636719 63.890625 246.523438 C 64.492188 246.011719 63.875 244.738281 63.027344 244.796875 C 62.824219 244.816406 61.734375 244.910156 60.589844 245.003906 Z M 60.589844 245.003906 " fill-opacity="1" fill-rule="nonzero"/></g><g fill="#941414" fill-opacity="1"><g transform="translate(201.906167, 87.113528)"><g><path d="M 1.734375 0 L 1.734375 -18.390625 C 1.734375 -18.773438 2.175781 -18.96875 3.0625 -18.96875 C 3.957031 -18.96875 4.800781 -18.90625 5.59375 -18.78125 C 6.382812 -18.664062 6.78125 -18.535156 6.78125 -18.390625 L 6.78125 0 C 6.78125 0.144531 6.769531 0.242188 6.75 0.296875 C 6.625 0.492188 6.148438 0.59375 5.328125 0.59375 C 4.515625 0.59375 3.710938 0.53125 2.921875 0.40625 C 2.128906 0.28125 1.734375 0.144531 1.734375 0 Z M 4.03125 -23.125 C 2.257812 -23.125 1.375 -24.015625 1.375 -25.796875 C 1.375 -27.578125 2.257812 -28.46875 4.03125 -28.46875 C 5.8125 -28.46875 6.703125 -27.578125 6.703125 -25.796875 C 6.703125 -24.015625 5.8125 -23.125 4.03125 -23.125 Z M 4.03125 -23.125 "/></g></g></g><g fill="#941414" fill-opacity="1"><g transform="translate(210.318909, 87.113528)"><g><path d="M 11.1875 -18.96875 C 13.019531 -18.96875 14.363281 -18.398438 15.21875 -17.265625 C 16.070312 -16.128906 16.5 -14.128906 16.5 -11.265625 L 16.5 0 C 16.5 0.144531 16.484375 0.242188 16.453125 0.296875 C 16.328125 0.492188 15.847656 0.59375 15.015625 0.59375 C 14.191406 0.59375 13.347656 0.53125 12.484375 0.40625 C 11.617188 0.28125 11.1875 0.144531 11.1875 0 L 11.15625 -11.265625 C 11.15625 -14.035156 10.957031 -15.421875 10.5625 -15.421875 C 9.675781 -15.421875 8.488281 -14.972656 7 -14.078125 L 7 0 C 7 0.144531 6.988281 0.242188 6.96875 0.296875 C 6.84375 0.492188 6.363281 0.59375 5.53125 0.59375 C 4.707031 0.59375 3.859375 0.53125 2.984375 0.40625 C 2.109375 0.28125 1.671875 0.144531 1.671875 0 L 1.671875 -18.390625 C 1.671875 -18.773438 2.164062 -18.96875 3.15625 -18.96875 C 4.707031 -18.96875 5.59375 -18.773438 5.8125 -18.390625 C 5.8125 -18.335938 5.828125 -18.3125 5.859375 -18.3125 L 6.5625 -16.90625 C 8.632812 -18.28125 10.175781 -18.96875 11.1875 -18.96875 Z M 11.1875 -18.96875 "/></g></g></g><g fill="#941414" fill-opacity="1"><g transform="translate(228.404455, 87.113528)"><g><path d="M 13.75 -17.71875 C 13.925781 -17.613281 14.015625 -17.382812 14.015625 -17.03125 C 14.015625 -16.675781 13.925781 -16.203125 13.75 -15.609375 C 13.425781 -14.515625 13.082031 -14.054688 12.71875 -14.234375 L 12.671875 -14.234375 L 11.375 -14.75 C 10.65625 -15.070312 9.785156 -15.234375 8.765625 -15.234375 C 7.742188 -15.234375 7.085938 -14.8125 6.796875 -13.96875 C 6.515625 -13.132812 6.375 -11.515625 6.375 -9.109375 C 6.375 -6.710938 6.550781 -5.101562 6.90625 -4.28125 C 7.269531 -3.457031 7.957031 -3.046875 8.96875 -3.046875 C 10.425781 -3.046875 11.5625 -3.128906 12.375 -3.296875 C 13.195312 -3.472656 13.617188 -3.5625 13.640625 -3.5625 C 13.804688 -3.601562 13.945312 -3.5 14.0625 -3.25 C 14.175781 -3.007812 14.234375 -2.429688 14.234375 -1.515625 C 14.234375 -0.597656 14.035156 -0.09375 13.640625 0 C 12.109375 0.394531 10.601562 0.59375 9.125 0.59375 C 6.125 0.59375 4.070312 -0.113281 2.96875 -1.53125 C 1.875 -2.957031 1.328125 -5.535156 1.328125 -9.265625 C 1.328125 -11.960938 1.566406 -13.992188 2.046875 -15.359375 C 2.535156 -16.734375 3.3125 -17.675781 4.375 -18.1875 C 5.4375 -18.707031 6.976562 -18.96875 9 -18.96875 C 11.03125 -18.96875 12.601562 -18.550781 13.71875 -17.71875 Z M 13.75 -17.71875 "/></g></g></g><g fill="#941414" fill-opacity="1"><g transform="translate(243.636324, 87.113528)"><g><path d="M 8.40625 0.59375 C 5.769531 0.59375 3.9375 -0.117188 2.90625 -1.546875 C 1.882812 -2.984375 1.375 -5.554688 1.375 -9.265625 C 1.375 -11.929688 1.609375 -13.960938 2.078125 -15.359375 C 2.546875 -16.753906 3.253906 -17.703125 4.203125 -18.203125 C 5.160156 -18.710938 6.5625 -18.96875 8.40625 -18.96875 C 10.257812 -18.96875 11.660156 -18.707031 12.609375 -18.1875 C 13.566406 -17.675781 14.265625 -16.710938 14.703125 -15.296875 C 15.148438 -13.890625 15.375 -11.890625 15.375 -9.296875 C 15.375 -9.148438 15.375 -9.003906 15.375 -8.859375 C 15.375 -8.710938 15.082031 -8.578125 14.5 -8.453125 C 13.925781 -8.328125 13.234375 -8.265625 12.421875 -8.265625 L 6.703125 -8.265625 C 6.753906 -5.367188 6.96875 -3.722656 7.34375 -3.328125 C 7.5625 -3.140625 7.914062 -3.046875 8.40625 -3.046875 C 11.644531 -3.046875 13.859375 -3.203125 15.046875 -3.515625 C 15.097656 -3.546875 15.132812 -3.5625 15.15625 -3.5625 C 15.332031 -3.601562 15.472656 -3.5 15.578125 -3.25 C 15.691406 -3.007812 15.75 -2.429688 15.75 -1.515625 C 15.75 -0.597656 15.550781 -0.09375 15.15625 0 C 14.144531 0.394531 11.894531 0.59375 8.40625 0.59375 Z M 6.703125 -14.125 L 6.703125 -11.234375 L 10.453125 -11.234375 C 10.347656 -14.097656 10.0625 -15.53125 9.59375 -15.53125 C 8.757812 -15.53125 8.066406 -15.40625 7.515625 -15.15625 C 6.972656 -14.90625 6.703125 -14.5625 6.703125 -14.125 Z M 6.703125 -14.125 "/></g></g></g><g fill="#941414" fill-opacity="1"><g transform="translate(166.341396, 302.684089)"><g><path d="M 4.09375 -66.46875 C 4.09375 -67.800781 4.410156 -68.695312 5.046875 -69.15625 C 5.679688 -69.613281 6.910156 -69.84375 8.734375 -69.84375 C 13.097656 -69.84375 15.3125 -68.75 15.375 -66.5625 L 16.734375 -39.28125 L 16.828125 -11 L 34.46875 -11 C 37.4375 -11 38.921875 -9.910156 38.921875 -7.734375 C 38.921875 -3.785156 38.34375 -1.421875 37.1875 -0.640625 C 36.582031 -0.210938 35.796875 0 34.828125 0 L 5.546875 0 L 4.09375 -1.453125 Z M 4.09375 -66.46875 "/></g></g></g><g fill="#941414" fill-opacity="1"><g transform="translate(205.894012, 302.684089)"><g><path d="M 4.28125 0 L 4.28125 -45.109375 C 4.28125 -46.078125 5.367188 -46.5625 7.546875 -46.5625 C 9.734375 -46.5625 11.796875 -46.410156 13.734375 -46.109375 C 15.671875 -45.804688 16.640625 -45.472656 16.640625 -45.109375 L 16.640625 0 C 16.640625 0.363281 16.609375 0.609375 16.546875 0.734375 C 16.242188 1.210938 15.09375 1.453125 13.09375 1.453125 C 11.09375 1.453125 9.125 1.300781 7.1875 1 C 5.25 0.695312 4.28125 0.363281 4.28125 0 Z M 9.90625 -56.75 C 5.539062 -56.75 3.359375 -58.929688 3.359375 -63.296875 C 3.359375 -67.660156 5.539062 -69.84375 9.90625 -69.84375 C 14.269531 -69.84375 16.453125 -67.660156 16.453125 -63.296875 C 16.453125 -58.929688 14.269531 -56.75 9.90625 -56.75 Z M 9.90625 -56.75 "/></g></g></g><g fill="#941414" fill-opacity="1"><g transform="translate(226.534117, 302.684089)"><g><path d="M 27.46875 -46.5625 C 31.945312 -46.5625 35.234375 -45.164062 37.328125 -42.375 C 39.421875 -39.582031 40.46875 -34.671875 40.46875 -27.640625 L 40.46875 0 C 40.46875 0.363281 40.4375 0.609375 40.375 0.734375 C 40.070312 1.210938 38.90625 1.453125 36.875 1.453125 C 34.84375 1.453125 32.765625 1.300781 30.640625 1 C 28.523438 0.695312 27.46875 0.363281 27.46875 0 L 27.375 -27.640625 C 27.375 -34.429688 26.890625 -37.828125 25.921875 -37.828125 C 23.734375 -37.828125 20.820312 -36.738281 17.1875 -34.5625 L 17.1875 0 C 17.1875 0.363281 17.15625 0.609375 17.09375 0.734375 C 16.789062 1.210938 15.625 1.453125 13.59375 1.453125 C 11.5625 1.453125 9.46875 1.300781 7.3125 1 C 5.164062 0.695312 4.09375 0.363281 4.09375 0 L 4.09375 -45.109375 C 4.09375 -46.078125 5.304688 -46.5625 7.734375 -46.5625 C 11.546875 -46.5625 13.726562 -46.078125 14.28125 -45.109375 C 14.28125 -44.984375 14.3125 -44.921875 14.375 -44.921875 L 16.09375 -41.46875 C 21.1875 -44.863281 24.976562 -46.5625 27.46875 -46.5625 Z M 27.46875 -46.5625 "/></g></g></g><g fill="#941414" fill-opacity="1"><g transform="translate(270.905803, 302.684089)"><g><path d="M 33.734375 -43.46875 C 34.160156 -43.226562 34.375 -42.664062 34.375 -41.78125 C 34.375 -40.90625 34.160156 -39.738281 33.734375 -38.28125 C 32.953125 -35.613281 32.101562 -34.492188 31.1875 -34.921875 L 31.09375 -34.921875 L 27.921875 -36.1875 C 26.160156 -36.976562 24.019531 -37.375 21.5 -37.375 C 18.988281 -37.375 17.382812 -36.34375 16.6875 -34.28125 C 15.988281 -32.21875 15.640625 -28.242188 15.640625 -22.359375 C 15.640625 -16.484375 16.078125 -12.53125 16.953125 -10.5 C 17.835938 -8.46875 19.519531 -7.453125 22 -7.453125 C 25.582031 -7.453125 28.375 -7.664062 30.375 -8.09375 C 32.375 -8.519531 33.40625 -8.734375 33.46875 -8.734375 C 33.894531 -8.847656 34.242188 -8.601562 34.515625 -8 C 34.785156 -7.394531 34.921875 -5.96875 34.921875 -3.71875 C 34.921875 -1.476562 34.4375 -0.238281 33.46875 0 C 29.707031 0.96875 26.007812 1.453125 22.375 1.453125 C 15.039062 1.453125 10.023438 -0.285156 7.328125 -3.765625 C 4.628906 -7.253906 3.28125 -13.578125 3.28125 -22.734375 C 3.28125 -29.335938 3.867188 -34.320312 5.046875 -37.6875 C 6.234375 -41.050781 8.128906 -43.367188 10.734375 -44.640625 C 13.335938 -45.921875 17.125 -46.5625 22.09375 -46.5625 C 27.070312 -46.5625 30.921875 -45.53125 33.640625 -43.46875 Z M 33.734375 -43.46875 "/></g></g></g><g fill="#941414" fill-opacity="1"><g transform="translate(308.27618, 302.684089)"><g><path d="M 20.640625 1.453125 C 14.148438 1.453125 9.644531 -0.300781 7.125 -3.8125 C 4.613281 -7.332031 3.359375 -13.640625 3.359375 -22.734375 C 3.359375 -29.285156 3.9375 -34.269531 5.09375 -37.6875 C 6.25 -41.113281 7.992188 -43.445312 10.328125 -44.6875 C 12.660156 -45.9375 16.097656 -46.5625 20.640625 -46.5625 C 25.191406 -46.5625 28.632812 -45.921875 30.96875 -44.640625 C 33.300781 -43.367188 35.007812 -41.003906 36.09375 -37.546875 C 37.1875 -34.097656 37.734375 -29.191406 37.734375 -22.828125 C 37.734375 -22.460938 37.734375 -22.097656 37.734375 -21.734375 C 37.734375 -21.367188 37.019531 -21.035156 35.59375 -20.734375 C 34.175781 -20.429688 32.46875 -20.28125 30.46875 -20.28125 L 16.453125 -20.28125 C 16.578125 -13.1875 17.09375 -9.15625 18 -8.1875 C 18.550781 -7.695312 19.429688 -7.453125 20.640625 -7.453125 C 28.585938 -7.453125 34.015625 -7.847656 36.921875 -8.640625 C 37.046875 -8.703125 37.132812 -8.734375 37.1875 -8.734375 C 37.613281 -8.847656 37.960938 -8.601562 38.234375 -8 C 38.515625 -7.394531 38.65625 -5.96875 38.65625 -3.71875 C 38.65625 -1.476562 38.164062 -0.238281 37.1875 0 C 34.707031 0.96875 29.191406 1.453125 20.640625 1.453125 Z M 16.453125 -34.640625 L 16.453125 -27.546875 L 25.640625 -27.546875 C 25.398438 -34.585938 24.703125 -38.109375 23.546875 -38.109375 C 21.492188 -38.109375 19.796875 -37.800781 18.453125 -37.1875 C 17.117188 -36.582031 16.453125 -35.734375 16.453125 -34.640625 Z M 16.453125 -34.640625 "/></g></g></g><g fill="#f1c40f" fill-opacity="1"><g transform="translate(56.492691, 341.235784)"><g><path d="M 39.921875 -62.71875 L 57.5 -62.71875 L 59.8125 -60.390625 L 59.8125 -44.71875 L 39.921875 -44.71875 L 39.921875 -24.828125 L 24.25 -24.828125 L 21.921875 -27.15625 L 21.921875 -44.71875 L 4.5 -44.71875 L 2.171875 -47.046875 L 2.171875 -62.71875 L 21.921875 -62.71875 L 21.921875 -82.328125 L 37.453125 -82.46875 L 39.921875 -80 Z M 39.921875 -62.71875 "/></g></g></g></svg>